<svg width="60" height="60" viewBox="0 0 60 60" fill="none" xmlns="http://www.w3.org/2000/svg">
<path d="M9.375 14.375C9.375 10.2329 12.7329 6.875 16.875 6.875H30.625C34.7671 6.875 38.125 10.2329 38.125 14.375V53.125H9.375V14.375Z" stroke="#FE7F00" stroke-width="1.5" stroke-linecap="round"/>
<path d="M50.625 53.125V26.875C50.625 22.7329 47.2671 19.375 43.125 19.375H38.125" stroke="#FE7F00" stroke-width="1.5" stroke-linecap="round"/>
<path d="M6.875 53.125H53.125" stroke="#FE7F00" stroke-width="1.5" stroke-linecap="round"/>
<path d="M30 53.125V40.625C30 39.2443 28.8807 38.125 27.5 38.125H20C18.6193 38.125 17.5 39.2443 17.5 40.625V53.125" stroke="#FE7F00" stroke-width="1.5" stroke-linecap="round"/>
<path d="M17.5 29.375H20" stroke="#FE7F00" stroke-width="1.5" stroke-linecap="round" stroke-linejoin="round"/>
<path d="M27.5 29.375H30" stroke="#FE7F00" stroke-width="1.5" stroke-linecap="round" stroke-linejoin="round"/>
<path d="M17.5 21.875H20" stroke="#FE7F00" stroke-width="1.5" stroke-linecap="round" stroke-linejoin="round"/>
<path d="M27.5 21.875H30" stroke="#FE7F00" stroke-width="1.5" stroke-linecap="round" stroke-linejoin="round"/>
<path d="M17.5 14.375H20" stroke="#FE7F00" stroke-width="1.5" stroke-linecap="round" stroke-linejoin="round"/>
<path d="M27.5 14.375H30" stroke="#FE7F00" stroke-width="1.5" stroke-linecap="round" stroke-linejoin="round"/>
</svg>
