<svg width="60" height="60" viewBox="0 0 60 60" fill="none" xmlns="http://www.w3.org/2000/svg">
<path d="M27.9906 7.757C29.2712 7.19493 30.7288 7.19493 32.0094 7.757L42.9525 12.5598C43.6819 12.8799 44.3243 13.3697 44.8261 13.9884L52.0081 22.8419C52.7306 23.7327 53.125 24.8448 53.125 25.9918V45.6251C53.125 49.7672 49.7671 53.1251 45.625 53.1251H14.375C10.2329 53.1251 6.875 49.7672 6.875 45.6251V25.9918C6.875 24.8448 7.26935 23.7327 7.99194 22.8419L15.1739 13.9884C15.6757 13.3697 16.3181 12.8799 17.0475 12.5598L27.9906 7.757Z" stroke="#FE7F00" stroke-width="1.5" stroke-linecap="round"/>
<path d="M36.25 53.125V40.625C36.25 39.2443 35.1307 38.125 33.75 38.125H26.25C24.8693 38.125 23.75 39.2443 23.75 40.625V53.125" stroke="#FE7F00" stroke-width="1.5" stroke-linecap="round"/>
<path d="M35 23.125C35 25.8864 32.7614 28.125 30 28.125C27.2386 28.125 25 25.8864 25 23.125C25 20.3636 27.2386 18.125 30 18.125C32.7614 18.125 35 20.3636 35 23.125Z" stroke="#FE7F00" stroke-width="1.5" stroke-linejoin="round"/>
</svg>
